<?xml version="1.0" ?>
<svg xmlns="http://www.w3.org/2000/svg" width="1200" height="1200" viewBox="0 0 1200 1200" style="background:#0b0d10">
  <g id="ticks">
    <line x1="600.00" y1="100.00" x2="600.00" y2="80.00" stroke="#9aa7b8" stroke-width="2"/>
    <text x="600.00" y="52.00" fill="#e9eef7" font-size="18" text-anchor="middle" dominant-baseline="middle">0</text>
    <line x1="652.26" y1="102.74" x2="654.35" y2="82.85" stroke="#9aa7b8" stroke-width="1"/>
    <line x1="703.96" y1="110.93" x2="708.11" y2="91.36" stroke="#9aa7b8" stroke-width="1"/>
    <line x1="754.51" y1="124.47" x2="760.69" y2="105.45" stroke="#9aa7b8" stroke-width="1"/>
    <line x1="803.37" y1="143.23" x2="811.50" y2="124.96" stroke="#9aa7b8" stroke-width="1"/>
    <line x1="850.00" y1="166.99" x2="860.00" y2="149.67" stroke="#9aa7b8" stroke-width="2"/>
    <text x="874.00" y="125.42" fill="#e9eef7" font-size="18" text-anchor="middle" dominant-baseline="middle">5</text>
    <line x1="893.89" y1="195.49" x2="905.65" y2="179.31" stroke="#9aa7b8" stroke-width="1"/>
    <line x1="934.57" y1="228.43" x2="947.95" y2="213.56" stroke="#9aa7b8" stroke-width="1"/>
    <line x1="971.57" y1="265.43" x2="986.44" y2="252.05" stroke="#9aa7b8" stroke-width="1"/>
    <line x1="1004.51" y1="306.11" x2="1020.69" y2="294.35" stroke="#9aa7b8" stroke-width="1"/>
    <line x1="1033.01" y1="350.00" x2="1050.33" y2="340.00" stroke="#9aa7b8" stroke-width="2"/>
    <text x="1074.58" y="326.00" fill="#e9eef7" font-size="18" text-anchor="middle" dominant-baseline="middle">10</text>
    <line x1="1056.77" y1="396.63" x2="1075.04" y2="388.50" stroke="#9aa7b8" stroke-width="1"/>
    <line x1="1075.53" y1="445.49" x2="1094.55" y2="439.31" stroke="#9aa7b8" stroke-width="1"/>
    <line x1="1089.07" y1="496.04" x2="1108.64" y2="491.89" stroke="#9aa7b8" stroke-width="1"/>
    <line x1="1097.26" y1="547.74" x2="1117.15" y2="545.65" stroke="#9aa7b8" stroke-width="1"/>
    <line x1="1100.00" y1="600.00" x2="1120.00" y2="600.00" stroke="#9aa7b8" stroke-width="2"/>
    <text x="1148.00" y="600.00" fill="#e9eef7" font-size="18" text-anchor="middle" dominant-baseline="middle">15</text>
    <line x1="1097.26" y1="652.26" x2="1117.15" y2="654.35" stroke="#9aa7b8" stroke-width="1"/>
    <line x1="1089.07" y1="703.96" x2="1108.64" y2="708.11" stroke="#9aa7b8" stroke-width="1"/>
    <line x1="1075.53" y1="754.51" x2="1094.55" y2="760.69" stroke="#9aa7b8" stroke-width="1"/>
    <line x1="1056.77" y1="803.37" x2="1075.04" y2="811.50" stroke="#9aa7b8" stroke-width="1"/>
    <line x1="1033.01" y1="850.00" x2="1050.33" y2="860.00" stroke="#9aa7b8" stroke-width="2"/>
    <text x="1074.58" y="874.00" fill="#e9eef7" font-size="18" text-anchor="middle" dominant-baseline="middle">20</text>
    <line x1="1004.51" y1="893.89" x2="1020.69" y2="905.65" stroke="#9aa7b8" stroke-width="1"/>
    <line x1="971.57" y1="934.57" x2="986.44" y2="947.95" stroke="#9aa7b8" stroke-width="1"/>
    <line x1="934.57" y1="971.57" x2="947.95" y2="986.44" stroke="#9aa7b8" stroke-width="1"/>
    <line x1="893.89" y1="1004.51" x2="905.65" y2="1020.69" stroke="#9aa7b8" stroke-width="1"/>
    <line x1="850.00" y1="1033.01" x2="860.00" y2="1050.33" stroke="#9aa7b8" stroke-width="2"/>
    <text x="874.00" y="1074.58" fill="#e9eef7" font-size="18" text-anchor="middle" dominant-baseline="middle">25</text>
    <line x1="803.37" y1="1056.77" x2="811.50" y2="1075.04" stroke="#9aa7b8" stroke-width="1"/>
    <line x1="754.51" y1="1075.53" x2="760.69" y2="1094.55" stroke="#9aa7b8" stroke-width="1"/>
    <line x1="703.96" y1="1089.07" x2="708.11" y2="1108.64" stroke="#9aa7b8" stroke-width="1"/>
    <line x1="652.26" y1="1097.26" x2="654.35" y2="1117.15" stroke="#9aa7b8" stroke-width="1"/>
    <line x1="600.00" y1="1100.00" x2="600.00" y2="1120.00" stroke="#9aa7b8" stroke-width="2"/>
    <text x="600.00" y="1148.00" fill="#e9eef7" font-size="18" text-anchor="middle" dominant-baseline="middle">30</text>
    <line x1="547.74" y1="1097.26" x2="545.65" y2="1117.15" stroke="#9aa7b8" stroke-width="1"/>
    <line x1="496.04" y1="1089.07" x2="491.89" y2="1108.64" stroke="#9aa7b8" stroke-width="1"/>
    <line x1="445.49" y1="1075.53" x2="439.31" y2="1094.55" stroke="#9aa7b8" stroke-width="1"/>
    <line x1="396.63" y1="1056.77" x2="388.50" y2="1075.04" stroke="#9aa7b8" stroke-width="1"/>
    <line x1="350.00" y1="1033.01" x2="340.00" y2="1050.33" stroke="#9aa7b8" stroke-width="2"/>
    <text x="326.00" y="1074.58" fill="#e9eef7" font-size="18" text-anchor="middle" dominant-baseline="middle">35</text>
    <line x1="306.11" y1="1004.51" x2="294.35" y2="1020.69" stroke="#9aa7b8" stroke-width="1"/>
    <line x1="265.43" y1="971.57" x2="252.05" y2="986.44" stroke="#9aa7b8" stroke-width="1"/>
    <line x1="228.43" y1="934.57" x2="213.56" y2="947.95" stroke="#9aa7b8" stroke-width="1"/>
    <line x1="195.49" y1="893.89" x2="179.31" y2="905.65" stroke="#9aa7b8" stroke-width="1"/>
    <line x1="166.99" y1="850.00" x2="149.67" y2="860.00" stroke="#9aa7b8" stroke-width="2"/>
    <text x="125.42" y="874.00" fill="#e9eef7" font-size="18" text-anchor="middle" dominant-baseline="middle">40</text>
    <line x1="143.23" y1="803.37" x2="124.96" y2="811.50" stroke="#9aa7b8" stroke-width="1"/>
    <line x1="124.47" y1="754.51" x2="105.45" y2="760.69" stroke="#9aa7b8" stroke-width="1"/>
    <line x1="110.93" y1="703.96" x2="91.36" y2="708.11" stroke="#9aa7b8" stroke-width="1"/>
    <line x1="102.74" y1="652.26" x2="82.85" y2="654.35" stroke="#9aa7b8" stroke-width="1"/>
    <line x1="100.00" y1="600.00" x2="80.00" y2="600.00" stroke="#9aa7b8" stroke-width="2"/>
    <text x="52.00" y="600.00" fill="#e9eef7" font-size="18" text-anchor="middle" dominant-baseline="middle">45</text>
    <line x1="102.74" y1="547.74" x2="82.85" y2="545.65" stroke="#9aa7b8" stroke-width="1"/>
    <line x1="110.93" y1="496.04" x2="91.36" y2="491.89" stroke="#9aa7b8" stroke-width="1"/>
    <line x1="124.47" y1="445.49" x2="105.45" y2="439.31" stroke="#9aa7b8" stroke-width="1"/>
    <line x1="143.23" y1="396.63" x2="124.96" y2="388.50" stroke="#9aa7b8" stroke-width="1"/>
    <line x1="166.99" y1="350.00" x2="149.67" y2="340.00" stroke="#9aa7b8" stroke-width="2"/>
    <text x="125.42" y="326.00" fill="#e9eef7" font-size="18" text-anchor="middle" dominant-baseline="middle">50</text>
    <line x1="195.49" y1="306.11" x2="179.31" y2="294.35" stroke="#9aa7b8" stroke-width="1"/>
    <line x1="228.43" y1="265.43" x2="213.56" y2="252.05" stroke="#9aa7b8" stroke-width="1"/>
    <line x1="265.43" y1="228.43" x2="252.05" y2="213.56" stroke="#9aa7b8" stroke-width="1"/>
    <line x1="306.11" y1="195.49" x2="294.35" y2="179.31" stroke="#9aa7b8" stroke-width="1"/>
    <line x1="350.00" y1="166.99" x2="340.00" y2="149.67" stroke="#9aa7b8" stroke-width="2"/>
    <text x="326.00" y="125.42" fill="#e9eef7" font-size="18" text-anchor="middle" dominant-baseline="middle">55</text>
    <line x1="396.63" y1="143.23" x2="388.50" y2="124.96" stroke="#9aa7b8" stroke-width="1"/>
    <line x1="445.49" y1="124.47" x2="439.31" y2="105.45" stroke="#9aa7b8" stroke-width="1"/>
    <line x1="496.04" y1="110.93" x2="491.89" y2="91.36" stroke="#9aa7b8" stroke-width="1"/>
    <line x1="547.74" y1="102.74" x2="545.65" y2="82.85" stroke="#9aa7b8" stroke-width="1"/>
  </g>
  <g id="bands">
    <g id="red_gates">
      <path d="M 699.80,130.49 A 480.00,480.00 0 0 1 882.14,211.67 L 858.63,244.03 A 440.00,440.00 0 0 0 691.48,169.62 Z" fill="#ff3b5c" opacity="0.35"/>
      <circle cx="787.10" cy="179.77" r="3" fill="#ff3b5c"/>
      <text x="766.76" y="225.45" fill="#ff3b5c" font-size="22" text-anchor="middle" dominant-baseline="middle" transform="rotate(24,766.76,225.45)">13031</text>
      <path d="M 1056.51,451.67 A 480.00,480.00 0 0 1 1077.37,650.17 L 1037.59,645.99 A 440.00,440.00 0 0 0 1018.46,464.03 Z" fill="#ff3b5c" opacity="0.35"/>
      <circle cx="1057.48" cy="551.92" r="3" fill="#ff3b5c"/>
      <text x="1007.75" y="557.14" fill="#ff3b5c" font-size="22" text-anchor="middle" dominant-baseline="middle" transform="rotate(84,1007.75,557.14)">35853</text>
      <path d="M 956.71,921.18 A 480.00,480.00 0 0 1 795.23,1038.50 L 778.96,1001.96 A 440.00,440.00 0 0 0 926.98,894.42 Z" fill="#ff3b5c" opacity="0.35"/>
      <circle cx="870.38" cy="972.15" r="3" fill="#ff3b5c"/>
      <text x="840.99" y="931.70" fill="#ff3b5c" font-size="22" text-anchor="middle" dominant-baseline="middle" transform="rotate(144,840.99,931.70)">77877</text>
      <path d="M 500.20,1069.51 A 480.00,480.00 0 0 1 317.86,988.33 L 341.37,955.97 A 440.00,440.00 0 0 0 508.52,1030.38 Z" fill="#ff3b5c" opacity="0.35"/>
      <circle cx="412.90" cy="1020.23" r="3" fill="#ff3b5c"/>
      <text x="433.24" y="974.55" fill="#ff3b5c" font-size="22" text-anchor="middle" dominant-baseline="middle" transform="rotate(204,433.24,974.55)">97079</text>
      <path d="M 143.49,748.33 A 480.00,480.00 0 0 1 122.63,549.83 L 162.41,554.01 A 440.00,440.00 0 0 0 181.54,735.97 Z" fill="#ff3b5c" opacity="0.35"/>
      <circle cx="142.52" cy="648.08" r="3" fill="#ff3b5c"/>
      <text x="192.25" y="642.86" fill="#ff3b5c" font-size="22" text-anchor="middle" dominant-baseline="middle" transform="rotate(264,192.25,642.86)">75257</text>
      <path d="M 243.29,278.82 A 480.00,480.00 0 0 1 404.77,161.50 L 421.04,198.04 A 440.00,440.00 0 0 0 273.02,305.58 Z" fill="#ff3b5c" opacity="0.35"/>
      <circle cx="329.62" cy="227.85" r="3" fill="#ff3b5c"/>
      <text x="359.01" y="268.30" fill="#ff3b5c" font-size="22" text-anchor="middle" dominant-baseline="middle" transform="rotate(324,359.01,268.30)">33233</text>
    </g>
    <g id="red_hinges">
      <path d="M 732.88,191.05 A 430.00,430.00 0 0 1 815.00,227.61 L 800.00,253.59 A 400.00,400.00 0 0 0 723.61,219.58 Z" fill="#ff3b5c" opacity="0.35"/>
      <circle cx="768.80" cy="220.88" r="3" fill="#ff3b5c"/>
      <text x="766.76" y="225.45" fill="#ff3b5c" font-size="22" text-anchor="middle" dominant-baseline="middle" transform="rotate(24,766.76,225.45)">303</text>
      <path d="M 1020.60,510.60 A 430.00,430.00 0 0 1 1030.00,600.00 L 1000.00,600.00 A 400.00,400.00 0 0 0 991.26,516.84 Z" fill="#ff3b5c" opacity="0.35"/>
      <circle cx="1012.73" cy="556.62" r="3" fill="#ff3b5c"/>
      <text x="1007.75" y="557.14" fill="#ff3b5c" font-size="22" text-anchor="middle" dominant-baseline="middle" transform="rotate(84,1007.75,557.14)">585</text>
      <path d="M 887.73,919.55 A 430.00,430.00 0 0 1 815.00,972.39 L 800.00,946.41 A 400.00,400.00 0 0 0 867.65,897.26 Z" fill="#ff3b5c" opacity="0.35"/>
      <circle cx="843.93" cy="935.74" r="3" fill="#ff3b5c"/>
      <text x="840.99" y="931.70" fill="#ff3b5c" font-size="22" text-anchor="middle" dominant-baseline="middle" transform="rotate(144,840.99,931.70)">787</text>
      <path d="M 467.12,1008.95 A 430.00,430.00 0 0 1 385.00,972.39 L 400.00,946.41 A 400.00,400.00 0 0 0 476.39,980.42 Z" fill="#ff3b5c" opacity="0.35"/>
      <circle cx="431.20" cy="979.12" r="3" fill="#ff3b5c"/>
      <text x="433.24" y="974.55" fill="#ff3b5c" font-size="22" text-anchor="middle" dominant-baseline="middle" transform="rotate(204,433.24,974.55)">707</text>
      <path d="M 179.40,689.40 A 430.00,430.00 0 0 1 170.00,600.00 L 200.00,600.00 A 400.00,400.00 0 0 0 208.74,683.16 Z" fill="#ff3b5c" opacity="0.35"/>
      <circle cx="187.27" cy="643.38" r="3" fill="#ff3b5c"/>
      <text x="192.25" y="642.86" fill="#ff3b5c" font-size="22" text-anchor="middle" dominant-baseline="middle" transform="rotate(264,192.25,642.86)">525</text>
      <path d="M 312.27,280.45 A 430.00,430.00 0 0 1 385.00,227.61 L 400.00,253.59 A 400.00,400.00 0 0 0 332.35,302.74 Z" fill="#ff3b5c" opacity="0.35"/>
      <circle cx="356.07" cy="264.26" r="3" fill="#ff3b5c"/>
      <text x="359.01" y="268.30" fill="#ff3b5c" font-size="22" text-anchor="middle" dominant-baseline="middle" transform="rotate(324,359.01,268.30)">323</text>
    </g>
    <g id="blue_micro">
      <path d="M 1047.64,400.70 A 490.00,490.00 0 0 1 1079.29,498.12 L 1049.95,504.36 A 460.00,460.00 0 0 0 1020.23,412.90 Z" fill="#29b0ff" opacity="0.35"/>
      <circle cx="1051.75" cy="453.22" r="3" fill="#29b0ff"/>
      <text x="989.93" y="473.30" fill="#29b0ff" font-size="22" text-anchor="middle" dominant-baseline="middle" transform="rotate(72,989.93,473.30)">858</text>
      <path d="M 1090.00,600.00 A 490.00,490.00 0 0 1 1079.29,701.88 L 1049.95,695.64 A 460.00,460.00 0 0 0 1060.00,600.00 Z" fill="#29b0ff" opacity="0.35"/>
      <circle cx="1072.40" cy="649.65" r="3" fill="#29b0ff"/>
      <text x="1007.75" y="642.86" fill="#29b0ff" font-size="22" text-anchor="middle" dominant-baseline="middle" transform="rotate(96,1007.75,642.86)">303</text>
      <path d="M 799.30,1047.64 A 490.00,490.00 0 0 1 701.88,1079.29 L 695.64,1049.95 A 460.00,460.00 0 0 0 787.10,1020.23 Z" fill="#29b0ff" opacity="0.35"/>
      <circle cx="746.78" cy="1051.75" r="3" fill="#29b0ff"/>
      <text x="726.70" y="989.93" fill="#29b0ff" font-size="22" text-anchor="middle" dominant-baseline="middle" transform="rotate(162,726.70,989.93)">454</text>
      <path d="M 600.00,1090.00 A 490.00,490.00 0 0 1 498.12,1079.29 L 504.36,1049.95 A 460.00,460.00 0 0 0 600.00,1060.00 Z" fill="#29b0ff" opacity="0.35"/>
      <circle cx="550.35" cy="1072.40" r="3" fill="#29b0ff"/>
      <text x="557.14" y="1007.75" fill="#29b0ff" font-size="22" text-anchor="middle" dominant-baseline="middle" transform="rotate(186,557.14,1007.75)">909</text>
      <path d="M 152.36,799.30 A 490.00,490.00 0 0 1 120.71,701.88 L 150.05,695.64 A 460.00,460.00 0 0 0 179.77,787.10 Z" fill="#29b0ff" opacity="0.35"/>
      <circle cx="148.25" cy="746.78" r="3" fill="#29b0ff"/>
      <text x="210.07" y="726.70" fill="#29b0ff" font-size="22" text-anchor="middle" dominant-baseline="middle" transform="rotate(252,210.07,726.70)">252</text>
      <path d="M 110.00,600.00 A 490.00,490.00 0 0 1 120.71,498.12 L 150.05,504.36 A 460.00,460.00 0 0 0 140.00,600.00 Z" fill="#29b0ff" opacity="0.35"/>
      <circle cx="127.60" cy="550.35" r="3" fill="#29b0ff"/>
      <text x="192.25" y="557.14" fill="#29b0ff" font-size="22" text-anchor="middle" dominant-baseline="middle" transform="rotate(276,192.25,557.14)">707</text>
      <path d="M 400.70,152.36 A 490.00,490.00 0 0 1 498.12,120.71 L 504.36,150.05 A 460.00,460.00 0 0 0 412.90,179.77 Z" fill="#29b0ff" opacity="0.35"/>
      <circle cx="453.22" cy="148.25" r="3" fill="#29b0ff"/>
      <text x="473.30" y="210.07" fill="#29b0ff" font-size="22" text-anchor="middle" dominant-baseline="middle" transform="rotate(342,473.30,210.07)">656</text>
    </g>
    <g id="red_101">
      <path d="M 496.04,110.93 A 500.00,500.00 0 0 1 600.00,100.00 L 600.00,115.00 A 485.00,485.00 0 0 0 499.16,125.60 Z" fill="#ff3b5c" opacity="0.35"/>
      <path d="M 600.00,100.00 A 500.00,500.00 0 0 1 600.00,100.00 L 600.00,115.00 A 485.00,485.00 0 0 0 600.00,115.00 Z" fill="#ff3b5c" opacity="0.35"/>
      <circle cx="548.52" cy="110.20" r="3" fill="#ff3b5c"/>
      <text x="557.14" y="192.25" fill="#ff3b5c" font-size="22" text-anchor="middle" dominant-baseline="middle" transform="rotate(354,557.14,192.25)">101</text>
    </g>
    <g id="blue_101">
      <path d="M 546.17,87.82 A 515.00,515.00 0 0 1 600.00,85.00 L 600.00,100.00 A 500.00,500.00 0 0 0 547.74,102.74 Z" fill="#29b0ff" opacity="0.35"/>
      <path d="M 600.00,85.00 A 515.00,515.00 0 0 1 653.83,87.82 L 652.26,102.74 A 500.00,500.00 0 0 0 600.00,100.00 Z" fill="#29b0ff" opacity="0.35"/>
      <circle cx="600.00" cy="92.50" r="3" fill="#29b0ff"/>
      <text x="600.00" y="190.00" fill="#29b0ff" font-size="22" text-anchor="middle" dominant-baseline="middle" transform="rotate(0,600.00,190.00)">101</text>
    </g>
  </g>
  <circle cx="600.00" cy="40.00" r="7" fill="#ffd166" stroke="#e9eef7" stroke-width="1.5"/>
  <text x="600.00" y="22.00" fill="#ffd166" font-size="16" text-anchor="middle">seam (0)</text>
  <g id="legend">
    <rect x="30" y="30" width="420" height="160" fill="#11151b" rx="10" ry="10" stroke="#44505f" stroke-width="1"/>
    <text x="50" y="60" fill="#e9eef7" font-size="26">Palindromic Wheel (60 ticks)</text>
    <circle cx="55" cy="92" r="6" fill="#ff3b5c"/>
    <text x="70" y="98" fill="#e9eef7" font-size="20">RED gates &amp; hinges</text>
    <circle cx="55" cy="122" r="6" fill="#29b0ff"/>
    <text x="70" y="128" fill="#e9eef7" font-size="20">BLUE micro-mirrors</text>
    <rect x="44" y="140" width="20" height="8" fill="#ffd166"/>
    <text x="70" y="148" fill="#e9eef7" font-size="18">Seam-spanning 101 (wrap)</text>
  </g>
</svg>
